<svg width="32" height="24" viewBox="0 0 32 24" fill="none" xmlns="http://www.w3.org/2000/svg">
<path d="M8.24034 21.9998C6.56034 21.9998 5.00034 21.3598 3.84034 20.1798C3.26246 19.602 2.80406 18.916 2.4913 18.1611C2.17855 17.4061 2.01758 16.5969 2.01758 15.7798C2.01758 14.9626 2.17855 14.1534 2.4913 13.3984C2.80406 12.6435 3.26246 11.9575 3.84034 11.3798L9.38034 5.83976C10.5496 4.67706 12.1314 4.02441 13.7803 4.02441C15.4293 4.02441 17.0111 4.67706 18.1803 5.83976C18.7604 6.41633 19.2207 7.10189 19.5348 7.85701C19.8489 8.61213 20.0106 9.42191 20.0106 10.2398C20.0106 11.0576 19.8489 11.8674 19.5348 12.6225C19.2207 13.3776 18.7604 14.0632 18.1803 14.6398C17.7803 15.0398 17.1603 15.0398 16.7603 14.6398C16.3603 14.2398 16.3603 13.6198 16.7603 13.2198C18.4003 11.5798 18.4003 8.89976 16.7603 7.23976C15.1003 5.57976 12.4203 5.57976 10.7803 7.23976L5.24034 12.7798C3.60034 14.4198 3.58034 17.0998 5.24034 18.7598C6.04034 19.5598 7.08034 20.0198 8.24034 19.9998C9.36034 19.9998 10.4203 19.5598 11.2203 18.7598C11.6203 18.3598 12.2403 18.3598 12.6403 18.7598C13.0403 19.1598 13.0403 19.7798 12.6403 20.1798C11.4603 21.3598 9.90034 21.9998 8.24034 21.9998Z" fill="black"/>
<path d="M18.2804 19.9398C16.6204 19.9398 15.0404 19.2998 13.8804 18.1198C13.3025 17.542 12.8441 16.856 12.5313 16.1011C12.2186 15.3461 12.0576 14.5369 12.0576 13.7198C12.0576 12.9026 12.2186 12.0934 12.5313 11.3385C12.8441 10.5835 13.3025 9.89754 13.8804 9.31976C14.2804 8.91976 14.9004 8.93976 15.3004 9.31976C15.7004 9.71976 15.6804 10.3398 15.3004 10.7398C13.6604 12.3798 13.6404 15.0598 15.3004 16.7198C16.1004 17.5198 17.2004 17.9798 18.3004 17.9598C19.4204 17.9598 20.4804 17.5198 21.2804 16.7198L26.7804 11.2198C27.5804 10.4198 28.0204 9.35976 28.0204 8.23976C28.0204 7.11976 27.5804 6.03976 26.7804 5.25976C25.1204 3.59976 22.4404 3.59976 20.8004 5.25976C20.4004 5.65976 19.7804 5.63976 19.3804 5.25976C18.9804 4.85976 19.0004 4.23976 19.3804 3.83976C20.5496 2.67706 22.1315 2.02441 23.7804 2.02441C25.4293 2.02441 27.0112 2.67706 28.1804 3.83976C29.3604 5.01976 30.0004 6.57976 30.0004 8.23976C30.0004 9.89976 29.3604 11.4598 28.1804 12.6398L22.6804 18.1398C21.5004 19.3198 19.9404 19.9598 18.2804 19.9598V19.9398Z" fill="black"/>
</svg>
