<svg width="24" height="25" viewBox="0 0 24 25" fill="none" xmlns="http://www.w3.org/2000/svg">
<path d="M7.8 2.74609H16.2C19.4 2.74609 22 5.34609 22 8.54609V16.9461C22 18.4844 21.3889 19.9596 20.3012 21.0473C19.2135 22.135 17.7383 22.7461 16.2 22.7461H7.8C4.6 22.7461 2 20.1461 2 16.9461V8.54609C2 7.00784 2.61107 5.53259 3.69878 4.44487C4.78649 3.35716 6.26174 2.74609 7.8 2.74609ZM7.6 4.74609C6.64522 4.74609 5.72955 5.12538 5.05442 5.80051C4.37928 6.47564 4 7.39131 4 8.34609V17.1461C4 19.1361 5.61 20.7461 7.6 20.7461H16.4C17.3548 20.7461 18.2705 20.3668 18.9456 19.6917C19.6207 19.0165 20 18.1009 20 17.1461V8.34609C20 6.35609 18.39 4.74609 16.4 4.74609H7.6ZM17.25 6.24609C17.5815 6.24609 17.8995 6.37779 18.1339 6.61221C18.3683 6.84663 18.5 7.16457 18.5 7.49609C18.5 7.82761 18.3683 8.14556 18.1339 8.37998C17.8995 8.6144 17.5815 8.74609 17.25 8.74609C16.9185 8.74609 16.6005 8.6144 16.3661 8.37998C16.1317 8.14556 16 7.82761 16 7.49609C16 7.16457 16.1317 6.84663 16.3661 6.61221C16.6005 6.37779 16.9185 6.24609 17.25 6.24609ZM12 7.74609C13.3261 7.74609 14.5979 8.27288 15.5355 9.21056C16.4732 10.1482 17 11.42 17 12.7461C17 14.0722 16.4732 15.3439 15.5355 16.2816C14.5979 17.2193 13.3261 17.7461 12 17.7461C10.6739 17.7461 9.40215 17.2193 8.46447 16.2816C7.52678 15.3439 7 14.0722 7 12.7461C7 11.42 7.52678 10.1482 8.46447 9.21056C9.40215 8.27288 10.6739 7.74609 12 7.74609ZM12 9.74609C11.2044 9.74609 10.4413 10.0622 9.87868 10.6248C9.31607 11.1874 9 11.9504 9 12.7461C9 13.5417 9.31607 14.3048 9.87868 14.8674C10.4413 15.43 11.2044 15.7461 12 15.7461C12.7956 15.7461 13.5587 15.43 14.1213 14.8674C14.6839 14.3048 15 13.5417 15 12.7461C15 11.9504 14.6839 11.1874 14.1213 10.6248C13.5587 10.0622 12.7956 9.74609 12 9.74609Z" fill="black"/>
</svg>
