<svg width="24" height="25" viewBox="0 0 24 25" fill="none" xmlns="http://www.w3.org/2000/svg">
<path d="M5.16 8.08074C6.36 8.08074 7.32 7.10574 7.32 5.92074C7.32 4.73574 6.345 3.76074 5.16 3.76074C3.975 3.76074 3 4.73574 3 5.92074C3 7.10574 3.975 8.08074 5.16 8.08074ZM9.375 9.71574V21.7457H13.095V15.8057C13.095 14.2307 13.395 12.7157 15.33 12.7157C17.265 12.7157 17.265 14.5157 17.265 15.8957V21.7457H21V15.1457C21 11.9057 20.31 9.41574 16.53 9.41574C14.715 9.41574 13.5 10.4057 13.005 11.3507H12.96V9.70074H9.39L9.375 9.71574ZM3.3 9.71574H7.035V21.7457H3.3V9.71574Z" fill="black"/>
</svg>
