<svg width="80" height="79" viewBox="0 0 80 79" fill="none" xmlns="http://www.w3.org/2000/svg">
<path d="M80.0063 39.4586C80.0063 61.0917 62.2801 78.6253 40.4094 78.6253C18.5387 78.6253 0.8125 61.0917 0.8125 39.4586C0.8125 33.4824 2.16069 27.8519 4.55748 22.814C2.95962 26.8147 2.21063 30.8153 2.21063 34.5196C2.21063 52.2508 16.6912 54.8191 22.833 54.7697C32.2204 54.6709 43.1557 50.127 52.3933 41.7306C52.3933 41.7306 51.1949 48.3489 50.8454 50.3739C50.4959 52.3496 51.7941 54.0782 53.7915 54.0782H54.5904C56.6376 54.0782 58.1356 52.3989 58.4852 50.3739L61.8307 31.9019C62.2301 29.8275 60.8819 28.1976 58.7848 28.1976H40.1098C38.0126 28.1976 36.1152 29.2842 35.7656 31.3586C35.7656 31.4574 35.6158 32.0501 35.6158 32.1982C35.3162 34.1739 36.7144 35.6556 38.7117 35.6556H48.4486C48.2988 35.8037 48.149 35.9519 47.9992 36.1001C41.2583 42.3727 32.9194 45.83 26.0287 45.83C19.1879 45.83 11.4982 41.533 11.4982 31.9019C11.4982 11.8988 30.4727 0.291992 40.4094 0.291992C62.2301 0.291992 80.0063 17.8256 80.0063 39.4586Z" fill="#3176EE"/>
</svg>
