<svg width="25" height="24" viewBox="0 0 25 24" fill="none" xmlns="http://www.w3.org/2000/svg">
<path d="M18.8605 10.5282C19.3185 10.5282 19.7631 10.5821 20.2077 10.6494V5.92084C20.2077 4.8431 19.5745 3.87314 18.591 3.45551L11.1816 0.222284C10.4945 -0.0740948 9.71315 -0.0740948 9.02609 0.222284L1.61661 3.45551C0.633173 3.88661 0 4.85657 0 5.92084V10.7707C0 16.8869 4.31097 22.6124 10.1038 24C10.8448 23.8248 11.5588 23.5689 12.2593 23.259C11.3298 21.9388 10.7774 20.3356 10.7774 18.6113C10.7774 14.1521 14.4013 10.5282 18.8605 10.5282Z" fill="#3176EE"/>
<path d="M18.8575 13.2227C15.8802 13.2227 13.4688 15.6341 13.4688 18.6114C13.4688 21.5886 15.8802 24.0001 18.8575 24.0001C21.8347 24.0001 24.2462 21.5886 24.2462 18.6114C24.2462 15.6341 21.8347 13.2227 18.8575 13.2227ZM18.8575 15.0818C19.6927 15.0818 20.3663 15.7688 20.3663 16.5906C20.3663 17.4124 19.6792 18.0994 18.8575 18.0994C18.0357 18.0994 17.3486 17.4124 17.3486 16.5906C17.3486 15.7688 18.0222 15.0818 18.8575 15.0818ZM18.8575 22.3161C17.6046 22.3161 16.5134 21.6964 15.8398 20.7399C15.9071 19.7699 17.874 19.285 18.8575 19.285C19.8409 19.285 21.8078 19.7699 21.8751 20.7399C21.2015 21.6964 20.1103 22.3161 18.8575 22.3161Z" fill="#3176EE"/>
</svg>
